<?xml version="1.0" standalone="no"?>
<!DOCTYPE svg PUBLIC "-//W3C//DTD SVG 20010904//EN"
 "http://www.w3.org/TR/2001/REC-SVG-20010904/DTD/svg10.dtd">
<svg version="1.0" xmlns="http://www.w3.org/2000/svg"
 width="512.000000pt" height="512.000000pt" viewBox="0 0 512.000000 512.000000"
 preserveAspectRatio="xMidYMid meet">
<metadata>
Created by potrace 1.14, written by Peter Selinger 2001-2017
</metadata>
<g transform="translate(0.000000,512.000000) scale(0.100000,-0.100000)"
fill="#000000" stroke="none">
<path d="M586 5095 c-24 -26 -26 -34 -28 -164 l-3 -136 -245 0 c-135 0 -254
-3 -266 -8 -11 -4 -26 -17 -33 -30 -9 -17 -11 -532 -9 -2167 l3 -2145 23 -65
c50 -138 163 -265 290 -325 122 -58 -2 -55 2247 -55 2037 0 2072 0 2142 20
180 50 320 181 385 361 22 61 23 78 26 416 l3 353 -25 25 -25 25 -536 0 -535
0 0 833 0 834 55 91 c30 50 55 94 55 98 0 3 8 18 19 32 10 15 97 164 193 332
96 168 239 415 317 549 77 134 141 248 141 253 0 15 22 8 69 -20 25 -16 54
-31 64 -35 21 -8 18 -14 -59 -144 -24 -41 -44 -77 -44 -79 0 -2 -11 -21 -24
-42 -14 -20 -37 -60 -53 -87 -26 -47 -122 -214 -185 -323 -15 -26 -27 -55 -28
-64 -1 -54 54 -97 101 -80 32 13 48 32 105 132 27 47 54 94 61 105 7 11 16 27
20 35 4 8 32 58 63 110 31 52 59 102 63 110 4 8 15 29 26 45 79 130 161 283
161 301 0 29 -31 65 -76 89 -22 11 -41 22 -44 25 -6 6 -37 24 -92 53 l-37 20
29 51 c36 64 50 123 40 175 -6 36 -3 48 36 116 52 91 57 105 56 169 0 129
-107 236 -237 236 -99 0 -171 -50 -236 -165 -35 -61 -49 -77 -77 -86 -79 -26
-93 -46 -356 -504 l-126 -219 -1 244 c0 135 0 268 1 296 1 41 -3 57 -23 80
l-25 29 -213 0 -214 0 -5 142 c-6 158 -10 169 -71 179 -26 4 -41 1 -59 -14
-24 -19 -25 -25 -28 -159 -2 -76 -7 -140 -12 -143 -4 -3 -93 -5 -197 -5 l-188
1 -5 141 c-6 163 -12 178 -80 178 -68 0 -74 -15 -80 -178 l-5 -142 -195 0
-195 0 -5 142 c-6 159 -11 171 -73 180 -29 4 -41 0 -62 -21 -24 -24 -25 -29
-25 -161 0 -74 -3 -135 -7 -136 -5 -1 -95 -2 -200 -3 l-193 -1 0 136 c0 155
-8 175 -70 185 -27 4 -42 1 -60 -14 -24 -19 -25 -26 -30 -164 l-5 -143 -195 0
-195 1 -5 141 c-6 163 -12 178 -80 178 -68 0 -74 -15 -80 -177 l-5 -142 -197
-1 -198 0 0 136 c0 157 -8 177 -72 186 -31 4 -42 0 -62 -22z"/>
</g>
</svg>
